<svg xmlns="http://www.w3.org/2000/svg" width="800" height="400">
        <rect width="100%" height="100%" fill="white" />
        <polyline points="80.37638452575844,215.98206537460229 82.3348524401575,220.26323401793454 84.09200182882762,220.87069713624533 85.49193988466587,223.8501590974833 86.83199858413344,226.28001157072612 90.33597333451323,226.28001157072612 91.64712475849151,229.2884003471217 92.94175773933307,229.4041076077524 116.12745748713184,199.3202198437951 121.93575505508605,199.3202198437951 145.60874887541848,206.0023141452125 151.54403197498635,201.98148683829905 172.48528826158133,255.49609487995366 180.62888072799137,294.9522707549898 189.21434154830905,315.2878218108186 206.76312257569722,317.13913798090823 214.09731132840727,317.13913798090823 228.15140922968007,340.33844373734445 235.20994646254584,340.33844373734445 242.54310281255985,350.0 248.4484462339424,350.0 255.50698346680818,346.6155626265548 258.7528575431765,338.2846398611513 278.94458947244215,329.43303442291 283.49851776470064,329.4041076077524 287.1377372682624,319.1350882267862 296.6100320044835,316.7341625687012 301.89490140554244,314.33323691061617 305.7044673539518,314.33323691061617 340.45101249207255,320.5525021695111 347.5869799271418,320.5525021695111 354.8757429612258,307.91148394561753 366.14338598587074,289.62973676598205 371.6564163827558,289.62973676598205 376.3094553338347,264.69482210008675 404.3608689880978,251.53312120335545 410.6512986151054,247.2230257448654 424.2263616654129,189.74544402661272 426.2994262790731,178.0879375180792 428.48502278660226,156.045704367949 443.1482382785421,153.4422910037605 446.74306446617396,144.61961238067687 450.0901140067548,116.50274804743987 453.73656032918893,107.91148394561756 458.02722593395566,103.2831935203933 490.47254546259,99.72519525600234 492.7138917157057,52.892681515765105 495.8988540330073,51.12814579114837 506.712239871392,50.0 510.2131174136836,54.85970494648524 514.3468578086514,59.2276540352907 516.8700499977875,64.28984668787967 519.6203707800539,64.14521261209137 599.4922053596447,64.34770031819494 604.7017093638923,171.08764824992758 631.6969750601005,172.33150130170662 634.2852086190875,208.83714203066236 640.6097075350647,213.58113971651713 647.7343185404774,238.86317616430426 656.8772768166599,266.17008967312694 688.6463725793843,279.3896442001735 695.6698081205845,224.80474399768576 705.3103844962611,231.02400925658083 723.3144551126056,199.89875614694824 725.5909030573868,189.7165172114549 737.3210624898603,189.7165172114549 750.0,217.57304020827297 750.0,350 50,350 80.37638452575844,215.98206537460229" fill="lightblue" stroke="blue" stroke-width="2" />
    </svg>